<?xml version="1.0" encoding="utf-8"?>
<!-- Generator: Adobe Illustrator 21.0.0, SVG Export Plug-In . SVG Version: 6.00 Build 0)  -->
<svg version="1.1" id="Layer_1" xmlns="http://www.w3.org/2000/svg" xmlns:xlink="http://www.w3.org/1999/xlink" x="0px" y="0px"
	 viewBox="0 0 18 18" style="enable-background:new 0 0 18 18;" xml:space="preserve">
<style type="text/css">
	.st0{fill:#FFFFFF;}
</style>
<path class="st0" d="M15,10.3H3c-0.8,0-1.5,0.7-1.5,1.5v6H3v-1.5h12v1.5h1.5v-6C16.5,10.9,15.8,10.3,15,10.3 M5.3,14
	c0,0.4-0.3,0.8-0.8,0.8S3.8,14.4,3.8,14v-1.5c0-0.4,0.3-0.8,0.8-0.8s0.8,0.3,0.8,0.8V14 M8.3,14c0,0.4-0.3,0.8-0.8,0.8
	S6.8,14.4,6.8,14v-1.5c0-0.4,0.3-0.8,0.8-0.8s0.8,0.3,0.8,0.8V14 M11.3,14c0,0.4-0.3,0.8-0.8,0.8S9.8,14.4,9.8,14v-1.5
	c0-0.4,0.3-0.8,0.8-0.8s0.8,0.3,0.8,0.8V14 M14.3,14c0,0.4-0.3,0.8-0.8,0.8s-0.8-0.3-0.8-0.8v-1.5c0-0.4,0.3-0.8,0.8-0.8
	s0.8,0.3,0.8,0.8V14z"/>
</svg>
