<?xml version="1.0" encoding="utf-8"?>
<!-- Generator: Adobe Illustrator 21.0.0, SVG Export Plug-In . SVG Version: 6.00 Build 0)  -->
<svg version="1.1" id="Layer_1" xmlns="http://www.w3.org/2000/svg" xmlns:xlink="http://www.w3.org/1999/xlink" x="0px" y="0px"
	 viewBox="0 0 18 18" style="enable-background:new 0 0 18 18;" xml:space="preserve">
<style type="text/css">
	.st0{fill:#FFFFFF;}
</style>
<path class="st0" d="M6,2.3L4.9,3.9L6,5.6h0L4.5,7.9L3.2,7.2l1.1-1.7L3.2,3.9l1.5-2.3L6,2.3 M10.5,2.2L9.4,3.8l1.1,1.7l0,0L9,7.8
	L7.7,7.1l1.1-1.6L7.7,3.8l1.5-2.3L10.5,2.2 M15,2.2l-1.1,1.7L15,5.5v0l-1.5,2.3l-1.3-0.7l1.1-1.6l-1.1-1.7l1.5-2.3L15,2.2 M1.5,16.5
	v-6C1.5,9.7,2.2,9,3,9h12c0.8,0,1.5,0.7,1.5,1.5v6H15V15H3v1.5H1.5 M4.5,10.5c-0.4,0-0.8,0.3-0.8,0.8v1.5c0,0.4,0.3,0.8,0.8,0.8
	s0.8-0.3,0.8-0.8v-1.5C5.3,10.8,4.9,10.5,4.5,10.5 M7.5,10.5c-0.4,0-0.8,0.3-0.8,0.8v1.5c0,0.4,0.3,0.8,0.8,0.8s0.8-0.3,0.8-0.8
	v-1.5C8.3,10.8,7.9,10.5,7.5,10.5 M10.5,10.5c-0.4,0-0.8,0.3-0.8,0.8v1.5c0,0.4,0.3,0.8,0.8,0.8s0.8-0.3,0.8-0.8v-1.5
	C11.3,10.8,10.9,10.5,10.5,10.5 M13.5,10.5c-0.4,0-0.8,0.3-0.8,0.8v1.5c0,0.4,0.3,0.8,0.8,0.8s0.8-0.3,0.8-0.8v-1.5
	C14.3,10.8,13.9,10.5,13.5,10.5z"/>
</svg>
