<?xml version="1.0" encoding="utf-8"?>
<!-- Generator: Adobe Illustrator 21.0.0, SVG Export Plug-In . SVG Version: 6.00 Build 0)  -->
<svg version="1.1" id="Layer_1" xmlns="http://www.w3.org/2000/svg" xmlns:xlink="http://www.w3.org/1999/xlink" x="0px" y="0px"
	 viewBox="0 0 18 18" style="enable-background:new 0 0 18 18;" xml:space="preserve">
<style type="text/css">
	.st0{fill:#FFFFFF;}
</style>
<path class="st0" d="M2.5,1.5l-1,1l2.1,2.1l0.7,1L3.2,7.2l1.3,0.7l1-1.5L8,9H3c-0.8,0-1.5,0.7-1.5,1.5v6H3V15h11l1,1v0.5h1.5v-1v0
	l0,0L2.5,1.5 M5.3,12.8c0,0.4-0.3,0.8-0.8,0.8s-0.8-0.3-0.8-0.8v-1.5c0-0.4,0.3-0.8,0.8-0.8s0.8,0.3,0.8,0.8V12.8 M8.3,12.8
	c0,0.4-0.3,0.8-0.8,0.8s-0.8-0.3-0.8-0.8v-1.5c0-0.4,0.3-0.8,0.8-0.8s0.8,0.3,0.8,0.8V12.8 M11.3,12.8c0,0.4-0.3,0.8-0.8,0.8
	s-0.8-0.3-0.8-0.8v-1.5c0-0.2,0.1-0.3,0.1-0.4l1.4,1.4V12.8 M12.2,7.1l1.1-1.6l-1.1-1.7l1.5-2.3L15,2.2l-1.1,1.7L15,5.5v0l-1.5,2.3
	L12.2,7.1 M16.5,10.5v3.1l-2.3-2.3v-0.1c0-0.4-0.3-0.8-0.8-0.8c0,0-0.1,0-0.1,0L11.9,9H15C15.8,9,16.5,9.7,16.5,10.5 M8.7,5.5
	L7.7,3.8l1.5-2.3l1.3,0.7L9.4,3.8l1.1,1.7l0,0L9.6,6.8l-1.1-1L8.7,5.5 M5.6,2.8L4.6,1.7l0.1-0.1L6,2.3L5.6,2.8z"/>
</svg>
