<?xml version="1.0" encoding="utf-8"?>
<!-- Generator: Adobe Illustrator 21.0.0, SVG Export Plug-In . SVG Version: 6.00 Build 0)  -->
<svg version="1.1" id="Layer_1" xmlns="http://www.w3.org/2000/svg" xmlns:xlink="http://www.w3.org/1999/xlink" x="0px" y="0px"
	 viewBox="0 0 64 64" style="enable-background:new 0 0 64 64;" xml:space="preserve">
<style type="text/css">
	.st0{fill:#FFFFFF;}
</style>
<g>
	<path class="st0" d="M51,34.5c0.1-0.8,0.2-1.6,0.2-2.5c0-0.9-0.1-1.7-0.2-2.5l5.4-4.2c0.5-0.4,0.6-1.1,0.3-1.6l-5.1-8.9
		c-0.3-0.6-1-0.8-1.6-0.6l-6.4,2.6c-1.3-1-2.7-1.9-4.3-2.5l-1-6.8c-0.1-0.6-0.6-1.1-1.3-1.1H26.9c-0.6,0-1.1,0.5-1.3,1.1l-1,6.8
		c-1.6,0.6-3,1.5-4.3,2.5L14,14.2c-0.6-0.2-1.3,0-1.6,0.6l-5.1,8.9C7,24.3,7.1,25,7.6,25.3l5.4,4.2c-0.1,0.8-0.2,1.7-0.2,2.5
		s0.1,1.7,0.2,2.5l-5.4,4.2c-0.5,0.4-0.6,1.1-0.3,1.6l5.1,8.9c0.3,0.6,1,0.8,1.6,0.6l6.4-2.6c1.3,1,2.7,1.9,4.3,2.5l1,6.8
		c0.1,0.6,0.6,1.1,1.3,1.1h10.2c0.6,0,1.2-0.5,1.3-1.1l1-6.8c1.6-0.6,3-1.5,4.3-2.5l6.4,2.6c0.6,0.2,1.3,0,1.6-0.6l5.1-8.9
		c0.3-0.6,0.2-1.3-0.3-1.6L51,34.5z M32,41.6c-5.3,0-9.6-4.3-9.6-9.6s4.3-9.6,9.6-9.6s9.6,4.3,9.6,9.6S37.3,41.6,32,41.6z"/>
</g>
</svg>
