<?xml version="1.0" encoding="utf-8"?>
<!-- Generator: Adobe Illustrator 21.0.0, SVG Export Plug-In . SVG Version: 6.00 Build 0)  -->
<svg version="1.1" id="Layer_1" xmlns="http://www.w3.org/2000/svg" xmlns:xlink="http://www.w3.org/1999/xlink" x="0px" y="0px"
	 viewBox="0 0 64 64" style="enable-background:new 0 0 64 64;" xml:space="preserve">
<style type="text/css">
	.st0{fill:#FFFFFF;}
</style>
<path class="st0" d="M45.3,45.2c-3.6,0-5.8,1.1-7.8,2.1c-1.7,0.9-3.1,1.6-5.4,1.6c-2.4,0-3.7-0.7-5.4-1.6c-2-1-4.2-2.1-7.8-2.1
	s-5.8,1.1-7.8,2.1c-1.7,0.9-3.1,1.6-5.4,1.6v5.2c3.6,0,5.8-1.1,7.8-2.1c1.7-0.9,3.1-1.6,5.4-1.6s3.7,0.7,5.4,1.6
	c2,1,4.2,2.1,7.8,2.1s5.8-1.1,7.8-2.1c1.7-0.9,3.1-1.6,5.4-1.6c2.4,0,3.7,0.7,5.4,1.6c2,1,4.2,2.1,7.8,2.1v-5.2
	c-2.4,0-3.7-0.7-5.4-1.6C51.1,46.3,48.8,45.2,45.3,45.2z M45.3,33.4c-3.6,0-5.8,1.1-7.8,2.1c-1.7,0.8-3.1,1.6-5.4,1.6
	c-2.4,0-3.7-0.7-5.4-1.6c-2-1-4.2-2.1-7.8-2.1s-5.8,1.1-7.8,2.1c-1.7,0.8-3.1,1.6-5.4,1.6v5.2c3.6,0,5.8-1.1,7.8-2.1
	c1.7-0.9,3-1.6,5.4-1.6s3.7,0.7,5.4,1.6c2,1,4.2,2.1,7.8,2.1s5.8-1.1,7.8-2.1c1.7-0.9,3-1.6,5.4-1.6s3.7,0.7,5.4,1.6
	c2,1,4.2,2.1,7.8,2.1v-5.2c-2.4,0-3.7-0.7-5.4-1.6C51.1,34.5,48.8,33.4,45.3,33.4z M53.1,12c-2-1-4.2-2.1-7.8-2.1S39.4,11,37.4,12
	c-1.7,0.8-3.1,1.6-5.4,1.6c-2.4,0-3.7-0.7-5.4-1.6c-2-1-4.2-2.1-7.8-2.1S12.9,11,10.9,12c-1.7,0.9-3.1,1.6-5.4,1.6v5.1
	c3.6,0,5.8-1.1,7.8-2.1c1.7-0.9,3.1-1.6,5.4-1.6s3.7,0.7,5.4,1.6c2,1,4.2,2.1,7.8,2.1s5.8-1.1,7.8-2.1c1.7-0.8,3.1-1.6,5.4-1.6
	c2.4,0,3.7,0.7,5.4,1.6c2,1,4.2,2.1,7.8,2.1v-5.2C56.1,13.6,54.8,12.9,53.1,12z M45.3,21.6c-3.6,0-5.8,1.1-7.8,2.1
	c-1.7,0.9-3,1.6-5.4,1.6s-3.7-0.7-5.4-1.6c-2-1-4.2-2.1-7.8-2.1s-5.8,1.1-7.8,2.1c-1.7,0.9-3,1.6-5.4,1.6v5.2c3.6,0,5.8-1.1,7.8-2.1
	c1.7-0.8,3.1-1.6,5.4-1.6s3.7,0.7,5.4,1.6c2,1,4.2,2.1,7.8,2.1s5.8-1.1,7.8-2.1c1.7-0.8,3.1-1.6,5.4-1.6c2.4,0,3.7,0.7,5.4,1.6
	c2,1,4.2,2.1,7.8,2.1v-5.2c-2.4,0-3.7-0.7-5.4-1.6C51.1,22.8,48.8,21.6,45.3,21.6z"/>
</svg>
